<?xml version="1.0" encoding="utf-8"?>
<!-- Generator: Adobe Illustrator 23.0.2, SVG Export Plug-In . SVG Version: 6.00 Build 0)  -->
<svg version="1.1" id="icon" xmlns="http://www.w3.org/2000/svg" xmlns:xlink="http://www.w3.org/1999/xlink" x="0px" y="0px"
	 viewBox="0 0 904 768" style="enable-background:new 0 0 904 768;" xml:space="preserve">
<style type="text/css">
	.st0{fill:#0057D9;}
	.st1{fill:#FFFFFF;}
</style>
<path class="st0" d="M778.12,759H125.88C91.15,759,63,730.85,63,696.12V71.88C63,37.15,91.15,9,125.88,9h652.24
	C812.85,9,841,37.15,841,71.88v624.24C841,730.85,812.85,759,778.12,759z"/>
<g>
	<g>
		<path class="st1" d="M571.64,565.74c-11.39,15.91-25.62,28.37-42.67,37.38c-17.05,9.01-36.27,14.35-57.64,16.01
			c-21.38,1.67-40.76,0.53-58.14-3.41c-17.38-3.94-35.03-11.44-52.97-22.5c-17.94-11.07-38.65-27.12-62.14-48.16
			c-30.34-3.78-57.55-13.35-81.62-28.72c-24.07-15.36-43.45-35.1-58.13-59.23c-14.68-24.12-23.2-51.28-25.56-81.48
			c-2.78-35.63,3.38-68.29,18.48-97.97c15.1-29.68,37.3-53.69,66.6-72.02c29.3-18.33,63.12-28.99,101.47-31.98
			c38.34-2.99,73.41,2.3,105.2,15.87c31.79,13.57,57.44,33.85,76.95,60.83c19.52,26.99,30.66,58.3,33.44,93.93
			c3.04,39.03-4.62,74.36-22.98,106.01c-18.36,31.65-44.63,55.97-78.81,72.97c5.51,5.04,10.98,8.44,16.42,10.24
			c5.43,1.79,11.37,2.44,17.82,1.94c17.64-1.38,33.51-10.29,47.59-26.75L571.64,565.74z M287.3,284.99
			c-11.48,8.24-20.26,19.33-26.34,33.29c-6.08,13.97-8.42,29.93-7.02,47.92c1.4,17.99,6.19,33.41,14.36,46.25
			c8.17,12.85,18.56,22.45,31.18,28.81c12.61,6.36,26.38,8.95,41.32,7.79c14.93-1.16,28.13-5.86,39.61-14.1
			c11.47-8.23,20.26-19.33,26.34-33.29c6.08-13.96,8.42-29.93,7.02-47.92c-1.4-17.98-6.19-33.4-14.36-46.25
			c-8.17-12.85-18.57-22.45-31.18-28.81c-12.62-6.35-26.39-8.95-41.32-7.79C311.98,272.05,298.77,276.76,287.3,284.99z"/>
	</g>
	<g>
		<path class="st1" d="M763.87,374.25L614.48,523.64l-45.56-45.56l46.57-46.57c-12.77-0.13-25.27-6.32-37.5-18.55
			c-9.68-9.68-16.27-20.9-19.76-33.67c-3.5-12.77-3.29-25.88,0.61-39.31c3.9-13.44,11.56-25.87,22.98-37.3
			c11.42-11.42,23.89-19.12,37.4-23.08c13.5-3.97,26.65-4.2,39.42-0.71c12.77,3.49,23.99,10.08,33.67,19.76
			c13.57,13.57,19.96,27.35,19.15,41.33l9.07-9.07L763.87,374.25z M642.91,395.62c7.12-0.4,14.11-4.03,20.97-10.89
			c6.86-6.85,10.52-13.88,10.99-21.07c0.47-7.19-1.92-13.41-7.16-18.65c-5.24-5.24-11.46-7.63-18.65-7.16
			c-7.19,0.47-14.21,4.13-21.07,10.99c-6.85,6.85-10.49,13.84-10.89,20.97c-0.41,7.12,2.02,13.31,7.26,18.55
			C629.6,393.6,635.78,396.02,642.91,395.62z"/>
	</g>
</g>
</svg>
