<?xml version="1.0" encoding="utf-8"?>
<!-- Generator: Adobe Illustrator 23.0.2, SVG Export Plug-In . SVG Version: 6.00 Build 0)  -->
<svg version="1.1" id="Capa_1" xmlns="http://www.w3.org/2000/svg" xmlns:xlink="http://www.w3.org/1999/xlink" x="0px" y="0px"
	 viewBox="0 0 904 416" style="enable-background:new 0 0 904 416;" xml:space="preserve">
<style type="text/css">
	.st0{fill:#0057D9;}
	.st1{fill:#EB455F;}
</style>
<g>
	<path class="st0" d="M211.73,77.57v114.11h-34.8v-35.57c-4.93,4.83-12.06,7.24-21.41,7.24c-7.39,0-14.19-1.77-20.41-5.31
		c-6.21-3.54-11.14-8.62-14.78-15.25c-3.65-6.62-5.47-14.3-5.47-23.02c0-8.72,1.82-16.42,5.47-23.1
		c3.64-6.67,8.57-11.78,14.78-15.32c6.21-3.54,13.01-5.31,20.41-5.31c10.37,0,18.07,2.82,23.1,8.47v-6.93H211.73z M173.7,131.94
		c2.56-2.87,3.85-6.93,3.85-12.17s-1.29-9.32-3.85-12.24c-2.57-2.93-5.85-4.39-9.86-4.39s-7.29,1.46-9.86,4.39
		c-2.57,2.93-3.85,7.01-3.85,12.24s1.28,9.29,3.85,12.17c2.56,2.88,5.85,4.31,9.86,4.31S171.13,134.81,173.7,131.94z"/>
	<path class="st0" d="M319.23,77.57v84.24h-33.11v-8.01c-3.08,3.18-6.68,5.57-10.78,7.16c-4.11,1.59-8.47,2.39-13.09,2.39
		c-10.68,0-19.25-3.26-25.72-9.78c-6.47-6.52-9.7-16.35-9.7-29.49V77.57h34.8v40.5c0,5.75,0.92,9.86,2.77,12.32
		c1.85,2.46,4.57,3.7,8.16,3.7c3.39,0,6.21-1.36,8.47-4.08c2.26-2.72,3.39-7.01,3.39-12.86V77.57H319.23z"/>
	<path class="st0" d="M391.53,136.25c2.51-0.92,5.26-2.51,8.24-4.77l18.17,18.33c-8.42,9.04-20.69,13.55-36.81,13.55
		c-10.16,0-19.1-1.87-26.8-5.62c-7.7-3.75-13.66-8.96-17.86-15.63c-4.21-6.67-6.31-14.17-6.31-22.48c0-8.42,2.1-15.94,6.31-22.56
		c4.21-6.62,9.98-11.78,17.33-15.48c7.34-3.7,15.58-5.54,24.72-5.54c8.32,0,15.96,1.67,22.95,5c6.98,3.34,12.52,8.27,16.63,14.78
		c4.1,6.52,6.16,14.3,6.16,23.33l-57.6,11.09c2.56,4.93,7.75,7.39,15.55,7.39C385.91,137.63,389.01,137.17,391.53,136.25z
		 M368.89,103.29c-2.52,2.36-4.03,5.85-4.54,10.47l26.95-5.24c-0.92-2.67-2.49-4.8-4.7-6.39c-2.21-1.59-4.85-2.39-7.93-2.39
		C374.67,99.75,371.4,100.93,368.89,103.29z"/>
	<path class="st0" d="M542.52,54.01v107.8h-36.34v-39.73h-33.57v39.73h-36.34V54.01h36.34V92.2h33.57V54.01H542.52z"/>
	<path class="st0" d="M651.4,77.57v84.24h-33.11v-6.93c-5.03,5.65-12.73,8.47-23.1,8.47c-7.39,0-14.19-1.77-20.4-5.31
		c-6.21-3.54-11.14-8.65-14.78-15.32c-3.65-6.67-5.47-14.37-5.47-23.1c0-8.72,1.82-16.4,5.47-23.02c3.64-6.62,8.57-11.7,14.78-15.25
		c6.21-3.54,13.01-5.31,20.4-5.31c9.34,0,16.48,2.41,21.41,7.24v-5.7H651.4z M613.36,131.86c2.57-2.93,3.85-7.01,3.85-12.24
		c0-5.24-1.29-9.29-3.85-12.17c-2.57-2.87-5.85-4.31-9.86-4.31s-7.29,1.44-9.86,4.31c-2.57,2.88-3.85,6.93-3.85,12.17
		c0,5.24,1.28,9.32,3.85,12.24c2.57,2.93,5.85,4.39,9.86,4.39S610.79,134.79,613.36,131.86z"/>
	<path class="st0" d="M758.89,77.57v67.45c0,16.02-4.44,28.05-13.32,36.11c-8.88,8.06-21.43,12.09-37.65,12.09
		c-8.32,0-16.09-0.9-23.33-2.7c-7.24-1.8-13.42-4.39-18.56-7.78l11.7-23.72c3.29,2.46,7.42,4.47,12.4,6.01
		c4.98,1.54,9.73,2.31,14.25,2.31c6.88,0,11.88-1.49,15.01-4.47c3.13-2.98,4.7-7.34,4.7-13.09v-0.62
		c-6.06,5.34-13.45,8.01-22.18,8.01c-10.68,0-19.25-3.26-25.72-9.78c-6.47-6.52-9.7-16.35-9.7-29.49V77.57h34.8v34.34
		c0,5.75,0.92,9.86,2.77,12.32c1.85,2.46,4.57,3.7,8.16,3.7c3.39,0,6.21-1.36,8.47-4.08c2.26-2.72,3.39-7.01,3.39-12.86V77.57
		H758.89z"/>
</g>
<g>
	<path class="st0" d="M291.65,389.88c-5.43,6.45-11.95,11.33-19.57,14.62c-7.62,3.3-16.05,4.95-25.29,4.95s-17.52-1.14-24.85-3.41
		c-7.33-2.27-14.66-6.08-21.99-11.43c-7.33-5.35-15.69-12.94-25.07-22.76c-12.9-2.64-24.26-7.66-34.08-15.06
		c-9.82-7.4-17.48-16.53-22.98-27.38c-5.5-10.85-8.25-22.79-8.25-35.84c0-15.39,3.74-29.21,11.21-41.45
		c7.48-12.24,17.81-21.8,31.01-28.7c13.19-6.89,28.07-10.33,44.64-10.33c16.56,0,31.45,3.45,44.64,10.33
		c13.19,6.89,23.53,16.46,31.01,28.7c7.48,12.24,11.21,26.06,11.21,41.45c0,16.86-4.47,31.78-13.41,44.75
		c-8.94,12.97-21.04,22.54-36.28,28.7c2.2,2.35,4.43,3.99,6.71,4.95c2.27,0.95,4.8,1.43,7.59,1.43c7.62,0,14.73-3.3,21.33-9.9
		L291.65,389.88z M178.95,259.81c-5.21,3.15-9.35,7.62-12.42,13.41c-3.08,5.79-4.62,12.57-4.62,20.34c0,7.77,1.54,14.55,4.62,20.34
		c3.08,5.79,7.22,10.26,12.42,13.41c5.2,3.15,11.03,4.73,17.48,4.73c6.45,0,12.28-1.57,17.48-4.73c5.2-3.15,9.35-7.62,12.42-13.41
		c3.08-5.79,4.62-12.57,4.62-20.34c0-7.77-1.54-14.55-4.62-20.34c-3.08-5.79-7.22-10.26-12.42-13.41
		c-5.21-3.15-11.03-4.73-17.48-4.73C189.98,255.08,184.15,256.66,178.95,259.81z"/>
	<path class="st0" d="M432.16,250.24v120.28h-47.28v-11.43c-4.4,4.54-9.53,7.95-15.39,10.22c-5.86,2.27-12.09,3.41-18.69,3.41
		c-15.25,0-27.49-4.65-36.72-13.96c-9.24-9.31-13.85-23.34-13.85-42.11v-66.41h49.7v57.83c0,8.21,1.32,14.07,3.96,17.59
		c2.64,3.52,6.52,5.28,11.65,5.28c4.84,0,8.87-1.94,12.09-5.83c3.22-3.88,4.84-10.01,4.84-18.36v-56.51H432.16z"/>
	<path class="st0" d="M457.34,233.42c-5.5-4.76-8.25-10.81-8.25-18.14c0-7.33,2.75-13.38,8.25-18.14c5.5-4.76,12.72-7.15,21.66-7.15
		c9.09,0,16.34,2.27,21.77,6.82c5.42,4.55,8.14,10.41,8.14,17.59c0,7.62-2.71,13.89-8.14,18.8c-5.43,4.91-12.68,7.37-21.77,7.37
		C470.06,240.57,462.84,238.19,457.34,233.42z M454.15,250.24h49.7v120.28h-49.7V250.24z"/>
	<path class="st0" d="M614.46,366.35c-7.48,4.25-17.67,6.38-30.57,6.38c-16.86,0-29.83-4.07-38.92-12.2
		c-9.09-8.14-13.63-20.34-13.63-36.61v-30.79h-16.49v-36.28h16.49v-33.64h49.7v33.64h24.63v36.28h-24.63v30.35
		c0,3.67,0.95,6.53,2.86,8.58c1.9,2.05,4.4,3.08,7.48,3.08c4.25,0,7.99-1.1,11.21-3.3L614.46,366.35z"/>
	<path class="st0" d="M651.29,364.7c-10.63-5.35-18.95-12.75-24.96-22.21c-6.01-9.46-9.02-20.19-9.02-32.21
		c0-12.02,3-22.76,9.02-32.21c6.01-9.46,14.33-16.82,24.96-22.1c10.63-5.28,22.61-7.92,35.95-7.92c13.49,0,25.54,2.64,36.17,7.92
		c10.63,5.28,18.91,12.64,24.85,22.1c5.94,9.46,8.91,20.2,8.91,32.21c0,12.02-2.97,22.76-8.91,32.21
		c-5.94,9.46-14.22,16.86-24.85,22.21c-10.63,5.35-22.69,8.03-36.17,8.03C673.9,372.73,661.92,370.05,651.29,364.7z M701.32,327.76
		c3.66-4.18,5.5-10.01,5.5-17.48s-1.83-13.27-5.5-17.37c-3.67-4.1-8.36-6.16-14.07-6.16c-5.72,0-10.41,2.05-14.07,6.16
		c-3.67,4.11-5.5,9.9-5.5,17.37s1.83,13.3,5.5,17.48c3.66,4.18,8.36,6.27,14.07,6.27C692.96,334.02,697.65,331.94,701.32,327.76z"/>
</g>
<g>
	<path class="st1" d="M419.79,20.5c-7.45-12.59-23.7-16.76-36.3-9.31c-18.78,11.12-32.05,49.76-32.05,49.76s40.26,6.96,59.04-4.16
		C423.08,49.34,427.24,33.09,419.79,20.5z"/>
</g>
</svg>
