<svg xmlns="http://www.w3.org/2000/svg" width="2em" height="2em"  viewBox="0 0 16 16" fill="white" aria-hidden="true"><path d="M14.4998 7.80903C14.4742 7.74825 14.4372 7.69292 14.3908 7.64603L8.68084 1.93803C8.58696 1.84427 8.45967 1.79165 8.32699 1.79175C8.19431 1.79184 8.0671 1.84464 7.97334 1.93853C7.87959 2.03241 7.82697 2.1597 7.82707 2.29238C7.82716 2.42506 7.87996 2.55227 7.97384 2.64603L12.8278 7.50003H1.96484C1.83224 7.50003 1.70506 7.5527 1.61129 7.64647C1.51752 7.74024 1.46484 7.86742 1.46484 8.00003C1.46484 8.13263 1.51752 8.25981 1.61129 8.35358C1.70506 8.44735 1.83224 8.50003 1.96484 8.50003H12.8278L7.97384 13.354C7.87996 13.4478 7.82716 13.575 7.82707 13.7077C7.82697 13.8404 7.87959 13.9676 7.97334 14.0615C8.0671 14.1554 8.19431 14.2082 8.32699 14.2083C8.45967 14.2084 8.58696 14.1558 8.68084 14.062L14.3878 8.35403C14.4342 8.30713 14.4712 8.2518 14.4968 8.19103C14.5478 8.069 14.5489 7.93184 14.4998 7.80903Z"></path></svg>